<svg width="100" height="100" viewBox="0 0 100 100" fill="none" xmlns="http://www.w3.org/2000/svg">
<rect x="17" y="43" width="4" height="14" rx="1" fill="#078440"/>
<rect x="9" y="45" width="4" height="12" rx="1" fill="#078440"/>
<rect x="1" y="50" width="4" height="7" rx="1" fill="#078440"/>
<path d="M27.9336 55.5007L32.1384 44.0956H33.2291V45.9372H32.7786L29.4274 55.5007H27.9336ZM29.8384 52.2365L30.281 51.0272H35.4343L35.8769 52.2365H29.8384ZM36.2563 55.5007L32.9051 45.9372V44.0956H33.5453L37.7501 55.5007H36.2563Z" fill="#078440"/>
<path d="M41.9268 55.6509C41.2102 55.6509 40.5832 55.4691 40.0457 55.1056C39.5083 54.742 39.092 54.2309 38.7969 53.5722C38.5019 52.9083 38.3543 52.1337 38.3543 51.2485V51.2327C38.3543 50.3422 38.5019 49.5676 38.7969 48.909C39.092 48.2503 39.5056 47.7392 40.0378 47.3757C40.5753 47.0121 41.205 46.8303 41.9268 46.8303C42.3168 46.8303 42.683 46.8935 43.0255 47.02C43.3732 47.1412 43.6815 47.3124 43.9502 47.5337C44.2189 47.755 44.4297 48.0185 44.5825 48.3241H44.709V43.5977H46.0842V55.5007H44.709V54.1413H44.5825C44.4086 54.4575 44.19 54.7288 43.9265 54.9554C43.663 55.1767 43.3627 55.3479 43.0255 55.4691C42.6882 55.5903 42.322 55.6509 41.9268 55.6509ZM42.243 54.4337C42.7594 54.4337 43.2046 54.3046 43.5787 54.0465C43.9528 53.7883 44.24 53.4221 44.4402 52.9478C44.6405 52.4683 44.7406 51.9019 44.7406 51.2485V51.2327C44.7406 50.5741 44.6405 50.0076 44.4402 49.5334C44.24 49.0592 43.9528 48.693 43.5787 48.4348C43.2046 48.1766 42.7594 48.0475 42.243 48.0475C41.7266 48.0475 41.2814 48.1766 40.9073 48.4348C40.5384 48.6877 40.2539 49.0513 40.0536 49.5255C39.8587 49.9997 39.7612 50.5688 39.7612 51.2327V51.2485C39.7612 51.9072 39.8587 52.4762 40.0536 52.9557C40.2539 53.43 40.5384 53.7962 40.9073 54.0544C41.2814 54.3073 41.7266 54.4337 42.243 54.4337Z" fill="#078440"/>
<path d="M50.8142 55.5007L47.6606 46.9805H49.1149L51.4465 53.999H51.573L53.9046 46.9805H55.3589L52.2053 55.5007H50.8142Z" fill="#078440"/>
<path d="M58.8796 55.6509C58.3422 55.6509 57.8574 55.5482 57.4254 55.3427C56.9985 55.1372 56.6587 54.8447 56.4058 54.4654C56.1581 54.086 56.0343 53.6381 56.0343 53.1217V53.1059C56.0343 52.6001 56.1555 52.168 56.3979 51.8097C56.6402 51.4461 56.9933 51.1616 57.457 50.9561C57.9207 50.7506 58.4818 50.6294 59.1405 50.5925L62.2704 50.4028V51.5014L59.3065 51.6911C58.6583 51.728 58.1841 51.8624 57.8838 52.0942C57.5887 52.3261 57.4412 52.6528 57.4412 53.0743V53.0901C57.4412 53.5222 57.6045 53.8594 57.9312 54.1018C58.2579 54.3389 58.6689 54.4574 59.1642 54.4574C59.6331 54.4574 60.0494 54.3652 60.413 54.1808C60.7766 53.9911 61.0611 53.7356 61.2666 53.4142C61.4774 53.0927 61.5827 52.7292 61.5827 52.3234V49.6678C61.5827 49.1408 61.422 48.7404 61.1006 48.4664C60.7845 48.1871 60.3076 48.0475 59.67 48.0475C59.1589 48.0475 58.74 48.1397 58.4133 48.3241C58.0866 48.5033 57.868 48.7588 57.7573 49.0908L57.7494 49.1145H56.3742L56.3821 49.0671C56.4558 48.6192 56.6402 48.2293 56.9353 47.8973C57.2357 47.5601 57.6229 47.2993 58.0972 47.1148C58.5714 46.9251 59.1115 46.8303 59.7174 46.8303C60.413 46.8303 61.0005 46.9436 61.48 47.1702C61.9648 47.3967 62.331 47.7234 62.5786 48.1502C62.8315 48.5718 62.958 49.0776 62.958 49.6678V55.5007H61.5827V54.244H61.4563C61.2771 54.5444 61.0585 54.7999 60.8003 55.0107C60.5473 55.2215 60.2602 55.3822 59.9388 55.4928C59.6173 55.5982 59.2643 55.6509 58.8796 55.6509Z" fill="#078440"/>
<path d="M65.1509 55.5007V46.9805H66.5262V48.2609H66.6526C66.8687 47.8077 67.1795 47.4573 67.5853 47.2097C67.991 46.9568 68.5074 46.8303 69.1344 46.8303C70.0934 46.8303 70.8284 47.1043 71.3396 47.6523C71.8559 48.195 72.1141 48.9722 72.1141 49.9839V55.5007H70.7389V50.3159C70.7389 49.5466 70.5755 48.9775 70.2488 48.6087C69.9274 48.2345 69.4268 48.0475 68.7471 48.0475C68.294 48.0475 67.9014 48.145 67.5695 48.3399C67.2375 48.5349 66.9793 48.8115 66.7949 49.1698C66.6157 49.5281 66.5262 49.9576 66.5262 50.4581V55.5007H65.1509Z" fill="#078440"/>
<path d="M77.7689 55.6509C76.9732 55.6509 76.283 55.4691 75.6981 55.1056C75.1132 54.742 74.6601 54.2282 74.3386 53.5643C74.0172 52.9004 73.8565 52.1179 73.8565 51.2169V51.2011C73.8565 50.3159 74.0146 49.5466 74.3307 48.8932C74.6522 48.2398 75.1053 47.734 75.6902 47.3757C76.2751 47.0121 76.9653 46.8303 77.761 46.8303C78.4512 46.8303 79.0467 46.9515 79.5472 47.1939C80.0478 47.4363 80.4483 47.7629 80.7486 48.1739C81.049 48.5797 81.2413 49.0355 81.3256 49.5413L81.3335 49.5887H79.9661L79.9582 49.565C79.8528 49.1435 79.6131 48.7852 79.239 48.4901C78.8649 48.195 78.3722 48.0475 77.761 48.0475C77.2499 48.0475 76.8073 48.1766 76.4331 48.4348C76.059 48.693 75.7692 49.0592 75.5637 49.5334C75.3635 50.0024 75.2634 50.5583 75.2634 51.2011V51.2169C75.2634 51.8703 75.3661 52.4394 75.5716 52.9241C75.7771 53.4036 76.0669 53.7751 76.4411 54.0385C76.8152 54.302 77.2551 54.4337 77.761 54.4337C78.3353 54.4337 78.8043 54.3099 79.1679 54.0623C79.5314 53.8146 79.7923 53.4537 79.9503 52.9794L79.9661 52.932L81.3256 52.9241L81.3098 53.0111C81.1939 53.5222 80.9884 53.978 80.6933 54.3784C80.3982 54.7736 80.0083 55.0845 79.5235 55.3111C79.0388 55.5376 78.4539 55.6509 77.7689 55.6509Z" fill="#078440"/>
<path d="M86.4982 55.6509C85.6868 55.6509 84.9886 55.4718 84.4037 55.1135C83.8241 54.7552 83.3762 54.2493 83.0601 53.5959C82.7492 52.9373 82.5937 52.1627 82.5937 51.2722V51.2643C82.5937 50.3844 82.7492 49.6124 83.0601 48.9485C83.3762 48.2846 83.8215 47.7656 84.3958 47.3915C84.9702 47.0174 85.642 46.8303 86.4113 46.8303C87.1858 46.8303 87.8498 47.0095 88.403 47.3678C88.9616 47.7261 89.3884 48.2266 89.6834 48.8695C89.9838 49.507 90.134 50.25 90.134 51.0983V51.6358H83.3051V50.5372H89.4305L88.7508 51.541V50.9956C88.7508 50.3264 88.6507 49.7758 88.4504 49.3437C88.2502 48.9116 87.9736 48.5902 87.6206 48.3794C87.2675 48.1634 86.8618 48.0554 86.4034 48.0554C85.945 48.0554 85.534 48.1687 85.1704 48.3953C84.8121 48.6166 84.5275 48.9459 84.3168 49.3832C84.106 49.8206 84.0006 50.358 84.0006 50.9956V51.541C84.0006 52.1469 84.1034 52.6659 84.3089 53.098C84.5144 53.5248 84.8068 53.8541 85.1862 54.086C85.5656 54.3125 86.0135 54.4258 86.5298 54.4258C86.9145 54.4258 87.2491 54.3731 87.5336 54.2678C87.8181 54.1624 88.0526 54.028 88.237 53.8647C88.4215 53.7013 88.5506 53.5353 88.6243 53.3667L88.6559 53.2956H90.0312L90.0154 53.3588C89.9416 53.6486 89.8099 53.9305 89.6202 54.2045C89.4358 54.4733 89.196 54.7183 88.901 54.9396C88.6059 55.1556 88.2555 55.3295 87.8498 55.4612C87.4493 55.5877 86.9988 55.6509 86.4982 55.6509Z" fill="#078440"/>
<path d="M95.0932 55.6509C94.3766 55.6509 93.7495 55.4691 93.2121 55.1056C92.6746 54.742 92.2584 54.2309 91.9633 53.5722C91.6682 52.9083 91.5207 52.1337 91.5207 51.2485V51.2327C91.5207 50.3422 91.6682 49.5676 91.9633 48.909C92.2584 48.2503 92.672 47.7392 93.2042 47.3757C93.7416 47.0121 94.3713 46.8303 95.0932 46.8303C95.4831 46.8303 95.8493 46.8935 96.1918 47.02C96.5396 47.1412 96.8478 47.3124 97.1165 47.5337C97.3853 47.755 97.596 48.0185 97.7488 48.3241H97.8753V43.5977H99.2506V55.5007H97.8753V54.1413H97.7488C97.575 54.4575 97.3563 54.7288 97.0928 54.9554C96.8294 55.1767 96.529 55.3479 96.1918 55.4691C95.8546 55.5903 95.4884 55.6509 95.0932 55.6509ZM95.4093 54.4337C95.9257 54.4337 96.371 54.3046 96.7451 54.0465C97.1192 53.7883 97.4063 53.4221 97.6066 52.9478C97.8068 52.4683 97.9069 51.9019 97.9069 51.2485V51.2327C97.9069 50.5741 97.8068 50.0076 97.6066 49.5334C97.4063 49.0592 97.1192 48.693 96.7451 48.4348C96.371 48.1766 95.9257 48.0475 95.4093 48.0475C94.8929 48.0475 94.4477 48.1766 94.0736 48.4348C93.7047 48.6877 93.4202 49.0513 93.22 49.5255C93.025 49.9997 92.9275 50.5688 92.9275 51.2327V51.2485C92.9275 51.9072 93.025 52.4762 93.22 52.9557C93.4202 53.43 93.7047 53.7962 94.0736 54.0544C94.4477 54.3073 94.8929 54.4337 95.4093 54.4337Z" fill="#078440"/>
</svg>
