<svg width="106" height="106" viewBox="0 0 106 106" fill="none" xmlns="http://www.w3.org/2000/svg">
<path d="M15.3956 74.3907C15.3956 76.9461 13.3481 78.9047 10.6117 78.9047H9.04257V83.1016H6V69.858H10.6117C13.3481 69.858 15.3956 71.8352 15.3956 74.3907ZM12.4487 74.3907C12.4487 73.4021 11.6642 72.656 10.5734 72.656H9.04257V76.1254H10.5734C11.6642 76.1254 12.4487 75.3606 12.4487 74.3907Z" fill="black"/>
<path d="M17.9973 72.5067C17.0214 72.5067 16.1986 71.7233 16.1986 70.7534C16.1986 69.7834 17.0214 69 17.9973 69C19.0115 69 19.8152 69.7834 19.8152 70.7534C19.8152 71.7233 19.0115 72.5067 17.9973 72.5067ZM16.5621 83.1016V73.7751H19.4516V83.1016H16.5621Z" fill="black"/>
<path d="M21.4492 83.1016V73.7751H24.3387V74.7264C24.7979 74.0922 25.7547 73.5699 26.9985 73.5699C29.3522 73.5699 30.7108 75.2674 30.7108 77.7109V83.1016H27.8214V78.1959C27.8214 76.9088 27.3047 76.1254 26.2714 76.1254C25.1806 76.1254 24.3387 76.8902 24.3387 78.5689V83.1016H21.4492Z" fill="black"/>
<path d="M37.0938 83.3067C34.2808 83.3067 32.0037 81.4415 32.0037 78.4383C32.0037 75.6591 34.1278 73.5699 37.0364 73.5699C39.5623 73.5699 41.8012 75.0995 41.8012 78.1212C41.8012 78.3637 41.8012 78.6622 41.7437 79.1098H34.7975C34.9697 80.229 36.0413 80.7513 37.1321 80.7513C38.2419 80.7513 39.0839 80.229 39.4475 79.6881L41.5907 81.2549C40.6913 82.486 39.103 83.3067 37.0938 83.3067ZM36.9598 75.8642C36.1179 75.8642 35.1228 76.2373 34.874 77.2632H38.9308C38.682 76.2746 37.8018 75.8642 36.9598 75.8642Z" fill="black"/>
<path d="M51.46 83.3254C49.3168 83.3254 47.4798 82.4487 46.4273 80.9565L48.7619 79.0352C49.4125 79.9865 50.5798 80.5461 51.5748 80.5461C52.589 80.5461 53.2205 80.0798 53.2205 79.4456C53.2205 78.7741 52.6847 78.3078 51.3261 77.8601L50.3693 77.543C48.1687 76.8155 46.944 75.5285 46.944 73.7192C46.944 71.1451 48.915 69.6342 51.6322 69.6342C53.2779 69.6342 54.7513 70.1378 56.0143 71.4622L54.0242 73.514C53.3927 72.7679 52.5316 72.4135 51.6705 72.4135C50.8477 72.4135 50.0248 72.7306 50.0248 73.4207C50.0248 74.1295 50.6946 74.4466 52.1298 74.9503L53.0865 75.286C55.0575 75.9762 56.3396 77.2446 56.3205 79.2404C56.3013 81.6466 54.3304 83.3254 51.46 83.3254Z" fill="black"/>
<path d="M62.3132 83.3067C59.5003 83.3067 57.2231 81.2922 57.2231 78.4383C57.2231 75.5845 59.5003 73.5699 62.3132 73.5699C64.3033 73.5699 66.0638 74.6705 66.8866 76.2933L64.3607 77.599C64.0163 76.7969 63.27 76.2 62.3132 76.2C61.1077 76.2 60.1318 77.114 60.1318 78.4383C60.1318 79.7627 61.1077 80.6767 62.3132 80.6767C63.27 80.6767 64.0163 80.0798 64.3607 79.2777L66.8866 80.5834C66.0638 82.2062 64.3033 83.3067 62.3132 83.3067Z" fill="black"/>
<path d="M68.0475 83.1016V73.7751H70.937V75.1741C71.2431 74.3534 72.1616 73.6632 73.2141 73.6632C73.5011 73.6632 73.8073 73.6819 74.1517 73.7751V76.629C73.7116 76.4798 73.3289 76.4052 72.8697 76.4052C71.6258 76.4052 70.937 77.3378 70.937 78.6808V83.1016H68.0475Z" fill="black"/>
<path d="M76.8177 72.5067C75.8418 72.5067 75.019 71.7233 75.019 70.7534C75.019 69.7834 75.8418 69 76.8177 69C77.8319 69 78.6356 69.7834 78.6356 70.7534C78.6356 71.7233 77.8319 72.5067 76.8177 72.5067ZM75.3826 83.1016V73.7751H78.272V83.1016H75.3826Z" fill="black"/>
<path d="M80.2696 87V73.7751H83.1591V74.7078C83.5418 74.2041 84.4795 73.5699 85.7616 73.5699C88.2683 73.5699 90.201 75.7896 90.201 78.4383C90.201 81.087 88.2683 83.3067 85.7616 83.3067C84.4795 83.3067 83.5418 82.6725 83.1591 82.1689V87H80.2696ZM85.1109 80.7513C86.4122 80.7513 87.2924 79.7813 87.2924 78.4383C87.2924 77.0953 86.4122 76.1254 85.1109 76.1254C83.8097 76.1254 82.9295 77.0953 82.9295 78.4383C82.9295 79.7813 83.8097 80.7513 85.1109 80.7513Z" fill="black"/>
<path d="M96.2778 83.2135C94.1537 83.2135 92.4315 82.057 92.4315 79.6881V76.2187H90.518V73.7751H92.4315V71.1824H95.321V73.7751H98V76.2187H95.321V79.1098C95.321 80.229 95.7994 80.6953 96.9475 80.6953C97.3877 80.6953 97.6938 80.6394 98 80.5275V83.0269C97.579 83.1389 97.0432 83.2135 96.2778 83.2135Z" fill="black"/>
<path d="M101.497 84C100.126 84 99 82.876 99 81.5C99 80.124 100.126 79 101.497 79C102.874 79 104 80.124 104 81.5C104 82.876 102.874 84 101.497 84ZM101.497 83.4005C102.547 83.4005 103.4 82.549 103.4 81.5C103.4 80.451 102.547 79.5995 101.497 79.5995C100.453 79.5995 99.6003 80.451 99.6003 81.5C99.6003 82.549 100.453 83.4005 101.497 83.4005ZM100.637 82.767V80.2398H101.653C102.138 80.2398 102.445 80.5872 102.445 81.0095C102.445 81.3297 102.274 81.5341 101.96 81.6567L102.847 82.767H102.138L101.312 81.7384H101.237V82.767H100.637ZM101.237 81.2343H101.585C101.735 81.2343 101.851 81.139 101.851 81.0095C101.851 80.8665 101.735 80.7847 101.585 80.7847H101.237V81.2343Z" fill="black"/>
<path fill-rule="evenodd" clip-rule="evenodd" d="M52.2236 16.576L36.2549 39.0242C35.7908 39.6767 35.9797 40.5869 36.665 41L38.104 41.8677L43.6447 38.7163C43.6356 38.604 43.6309 38.4903 43.6309 38.3756C43.6309 36.0975 45.4747 34.2507 47.7492 34.2507C50.0236 34.2507 51.8674 36.0975 51.8674 38.3756C51.8674 38.6635 51.838 38.9445 51.7819 39.2158L58.1297 43.8695C58.8767 43.1093 59.9158 42.638 61.0649 42.638C62.3855 42.638 63.5609 43.2606 64.3145 44.2287L70.2128 40.7732C70.6696 40.3107 70.7495 39.5652 70.3543 39.0076L54.4626 16.5802C53.916 15.8089 52.7716 15.8057 52.2236 16.576Z" fill="#00B453"/>
<path fill-rule="evenodd" clip-rule="evenodd" d="M35.8859 46.1158L28.2576 56.8276C27.6094 57.7378 28.259 59.001 29.3752 59.001H76.6271C77.7421 59.001 78.3892 57.7362 77.7434 56.8258L68.9941 44.4919L64.87 46.908C64.7941 49.1194 62.9804 50.8888 60.7542 50.8888C58.4797 50.8888 56.6359 49.042 56.6359 46.7639C56.6359 46.6485 56.6406 46.5343 56.6499 46.4213L50.0394 41.5749C49.3302 42.1542 48.4248 42.5015 47.4384 42.5015C46.2715 42.5015 45.218 42.0154 44.4686 41.2344L35.8859 46.1158Z" fill="#078440"/>
</svg>
