<svg width="1622" height="277" viewBox="0 0 1622 277" fill="none" xmlns="http://www.w3.org/2000/svg">
<path d="M404.343 218.5H436.214V93.632H477.91V63.5066H363.084V93.632H404.343V218.5Z" fill="#131722"/>
<path d="M477.956 218.5H507.863V166.326C507.863 148.207 517.25 137.292 531.439 137.292C536.46 137.292 540.39 138.165 544.974 139.693V109.35C541.263 108.258 538.207 108.04 534.932 108.04C522.707 108.04 511.574 116.117 507.863 126.814V109.35H477.956V218.5Z" fill="#131722"/>
<path d="M602.377 220.901C617.439 220.901 628.791 213.26 633.812 206.275V218.5H663.719V109.35H633.812V121.574C628.791 114.589 617.439 106.948 602.377 106.948C573.343 106.948 551.076 133.144 551.076 163.925C551.076 194.705 573.343 220.901 602.377 220.901ZM608.707 193.613C592.117 193.613 581.202 181.17 581.202 163.925C581.202 146.679 592.117 134.236 608.707 134.236C625.298 134.236 636.213 146.679 636.213 163.925C636.213 181.17 625.298 193.613 608.707 193.613Z" fill="#131722"/>
<path d="M734.926 220.901C749.988 220.901 761.34 213.26 766.361 206.275V218.5H796.268V54.7746H766.361V121.574C761.34 114.589 749.988 106.948 734.926 106.948C705.892 106.948 683.625 133.144 683.625 163.925C683.625 194.705 705.892 220.901 734.926 220.901ZM741.256 193.613C724.666 193.613 713.751 181.17 713.751 163.925C713.751 146.679 724.666 134.236 741.256 134.236C757.847 134.236 768.762 146.679 768.762 163.925C768.762 181.17 757.847 193.613 741.256 193.613Z" fill="#131722"/>
<path d="M838.004 91.4491C848.701 91.4491 857.215 82.9353 857.215 72.4569C857.215 61.9786 848.701 53.4648 838.004 53.4648C827.744 53.4648 819.012 61.9786 819.012 72.4569C819.012 82.9353 827.744 91.4491 838.004 91.4491ZM823.16 218.5H853.067V109.35H823.16V218.5Z" fill="#131722"/>
<path d="M879.602 218.5H909.509V165.234C909.509 144.278 919.769 134.236 933.741 134.236C946.184 134.236 952.951 143.841 952.951 159.559V218.5H982.858V154.538C982.858 126.159 967.141 106.948 940.726 106.948C926.537 106.948 915.403 113.061 909.509 121.793V109.35H879.602V218.5Z" fill="#131722"/>
<path d="M1058.96 190.121C1043.9 190.121 1031.24 178.769 1031.24 162.178C1031.24 145.369 1043.9 134.236 1058.96 134.236C1074.03 134.236 1086.69 145.369 1086.69 162.178C1086.69 178.769 1074.03 190.121 1058.96 190.121ZM1055.47 266.307C1088.87 266.307 1114.19 249.28 1114.19 209.986V109.35H1084.29V121.574C1078.39 113.061 1066.61 106.948 1052.63 106.948C1024.04 106.948 1001.12 131.398 1001.12 162.178C1001.12 192.74 1024.04 217.19 1052.63 217.19C1066.61 217.19 1078.39 210.859 1084.29 202.782V210.204C1084.29 227.668 1072.72 240.111 1055.04 240.111C1042.81 240.111 1030.59 235.964 1020.98 226.577L1004.61 248.843C1017.05 260.85 1036.48 266.307 1055.47 266.307Z" fill="#131722"/>
<path d="M1177.43 218.5H1205.59L1269.77 63.5066H1234.84L1191.62 171.129L1147.74 63.5066H1113.47L1177.43 218.5Z" fill="#131722"/>
<path d="M1297.21 91.4491C1307.91 91.4491 1316.42 82.9353 1316.42 72.4569C1316.42 61.9786 1307.91 53.4648 1297.21 53.4648C1286.95 53.4648 1278.22 61.9786 1278.22 72.4569C1278.22 82.9353 1286.95 91.4491 1297.21 91.4491ZM1282.37 218.5H1312.27V109.35H1282.37V218.5Z" fill="#131722"/>
<path d="M1389.67 220.901C1412.59 220.901 1430.06 211.296 1440.32 196.451L1418.05 179.861C1413.03 187.501 1403.64 193.613 1389.89 193.613C1375.48 193.613 1362.6 185.536 1360.86 170.91H1442.5C1443.16 166.326 1442.94 163.27 1442.94 160.65C1442.94 125.067 1417.83 106.948 1389.24 106.948C1356.05 106.948 1331.82 131.616 1331.82 163.925C1331.82 198.416 1357.15 220.901 1389.67 220.901ZM1361.95 150.608C1364.79 137.292 1377.23 131.616 1388.36 131.616C1399.5 131.616 1410.41 137.51 1413.03 150.608H1361.95Z" fill="#131722"/>
<path d="M1554.98 218.5H1584.67L1620.69 109.35H1588.6L1568.08 179.206L1545.81 109.35H1522.89L1500.84 179.206L1480.11 109.35H1448.23L1484.47 218.5H1514.16L1534.46 156.502L1554.98 218.5Z" fill="#131722"/>
<path fill-rule="evenodd" clip-rule="evenodd" d="M170.5 123.5C187.621 123.5 201.5 109.621 201.5 92.5C201.5 75.3792 187.621 61.5 170.5 61.5C153.379 61.5 139.5 75.3792 139.5 92.5C139.5 109.621 153.379 123.5 170.5 123.5ZM240.5 218.5H168.5L233.5 63.5H305.5L240.5 218.5ZM62 63.5H124V125.5V218.5H62V125.5H0V63.5H62Z" fill="#131722"/>
</svg>
