<svg width="1920" height="410" viewBox="0 0 1920 410" xmlns="http://www.w3.org/2000/svg"><defs><linearGradient x1="84.369%" y1="41.378%" x2="86.182%" y2="94.437%" id="JG8f8eYv-b"><stop stop-color="#6DDAF4" stop-opacity=".141" offset="0%"/><stop stop-color="#2962FF" stop-opacity=".703" offset="100%"/></linearGradient><filter x="-50%" y="-50%" width="200%" height="200%" filterUnits="objectBoundingBox" id="sUJz6HH1-d"><feGaussianBlur stdDeviation="3" in="SourceGraphic" result="blur"/></filter><filter x="-50%" y="-50%" width="200%" height="200%" filterUnits="objectBoundingBox" id="sOiWorO7-f"><feGaussianBlur stdDeviation="2" in="SourceGraphic" result="blur"/></filter><filter x="-50%" y="-50%" width="200%" height="200%" filterUnits="objectBoundingBox" id="QPdamjIO-h"><feGaussianBlur stdDeviation="1" in="SourceGraphic" result="blur"/></filter><filter x="-50%" y="-50%" width="200%" height="200%" filterUnits="objectBoundingBox" id="HdebVl4s-j"><feGaussianBlur in="SourceGraphic" result="blur"/></filter></defs><g fill="none" fill-rule="evenodd"><path d="M1854.288 81.34l-21.253 42.494-21.252-10.01-21.253 3.44-43.17 31.67-43.17 44.224-21.25 17.933-21.254 11.663-21.252 34.488-43.17-5.714-43.17-32.01-21.252 1.026-21.252 10.568-21.253 11.35-43.17 6.222L1404 234.07l-21.254-1.516-21.253 12.52-21.252 12.03-43.168 8.177-43.17-3.265-21.252-10.924-21.253-8.53-21.252-10.242-43.17-16.54-43.17-15.857-21.252-3.194-21.252-2.075-21.252 13.674-43.17 24.07-43.168 10.375-21.253-4.774-21.253-1.568-21.252 8.47-43.17 8.684-43.17 10.413-21.25 10.976-21.255 11.71-21.253-3.893-43.168 1.703-43.17 5.308-21.253-1.01-21.25 2.19-21.254 4.43-43.172 5.064-43.167 6.57-21.252 10.273-21.254 12.92-21.25 9.895-43.17 10.562-43.17 10.84-21.254 5.683-21.25 6.032-21.255 5.525-43.17 8.94-43.167 6.797-21.254 2.295L160.72 398l-21.25-.607-43.17 4.875-43.17 5.504-21.25 1.635-21.255 2.28L0 413.128v22.778h1930V0l-32.543 19.702-43.17 61.638z" stroke="#2962FF" stroke-linecap="round" stroke-linejoin="round" fill-opacity=".3" fill="url(#JG8f8eYv-b)" opacity=".1" filter="url(#sUJz6HH1-d)"/><path d="M1854.288 102.412l-21.253 42.176-21.252-10.326-21.253 3.125-43.17 31.038-43.17 43.6-21.25 17.627-21.254 11.36-21.252 34.186-43.17-6.32-43.17-32.606-21.252.733-21.252 10.28-21.253 11.062-43.17 5.644L1404 248.81l-21.254-1.794-21.253 12.245-21.252 11.754-43.168 7.626-43.17-3.81-21.252-11.188-21.253-8.793-21.252-10.504-43.17-17.064-43.17-16.373-21.252-3.448-21.252-2.324-21.252 13.426-43.17 23.57-43.168 9.888-21.253-5.01-21.253-1.804-21.252 8.237-43.17 8.213-43.17 9.952-21.25 10.75-21.255 11.486-21.253-4.112-43.168 1.26-43.17 4.873-21.253-1.22-21.25 1.98-21.254 4.223-43.172 4.648-43.167 6.162-21.252 10.076-21.254 12.725-21.25 9.7-43.17 10.176-43.17 10.458-21.254 5.5-21.25 5.85-21.255 5.343-43.17 8.578-43.167 6.446-21.254 2.125-21.253 1.027-21.25-.775-43.17 4.54-43.17 5.18-21.25 1.476-21.255 2.125L0 413.57v22.778h1930V22.22l-32.543 19.206-43.17 60.986z" stroke="#2962FF" stroke-linecap="round" stroke-linejoin="round" fill-opacity=".3" fill="url(#JG8f8eYv-b)" opacity=".2" filter="url(#sOiWorO7-f)"/><path d="M1854.288 122.583l-21.253 41.865-21.252-10.635-21.253 2.817-43.17 30.42-43.17 42.988-21.25 17.33-21.254 11.064-21.252 33.892-43.17-6.912-43.17-33.19-21.252.448-21.252 9.995-21.253 10.782-43.17 5.078-43.168-15.74-21.254-2.066-21.253 11.974-21.252 11.487-43.168 7.088-43.17-4.34-21.252-11.448-21.253-9.05-21.252-10.758-43.17-17.577-43.17-16.877-21.252-3.693-21.252-2.567-21.252 13.183-43.17 23.087-43.168 9.41-21.253-5.244-21.253-2.035-21.252 8.008-43.17 7.754-43.17 9.5-21.25 10.532-21.255 11.267-21.253-4.33-43.168.83-43.17 4.447-21.253-1.426-21.25 1.775-21.254 4.02-43.172 4.243-43.167 5.763-21.252 9.883-21.254 12.534-21.25 9.51-43.17 9.795-43.17 10.086-21.254 5.32-21.25 5.67-21.255 5.17-43.17 8.223-43.167 6.1-21.254 1.96-21.253.86-21.25-.94-43.17 4.216-43.17 4.86-21.25 1.322-21.255 1.972L0 413.567v22.778h1930V43.515l-32.543 18.72-43.17 60.348z" stroke="#2962FF" stroke-linecap="round" stroke-linejoin="round" fill-opacity=".3" fill="url(#JG8f8eYv-b)" opacity=".3" filter="url(#QPdamjIO-h)"/><path d="M1854.288 142.755l-21.253 41.553-21.252-10.944-21.253 2.51-43.17 29.802-43.17 42.376-21.25 17.033-21.254 10.767-21.252 33.598-43.17-7.504-43.17-33.775-21.252.165-21.252 9.712-21.253 10.5-43.17 4.513L1404 276.762l-21.254-2.338-21.253 11.705-21.252 11.218-43.168 6.548-43.17-4.87-21.252-11.708-21.253-9.307L1190.145 267l-43.17-18.09-43.17-17.38-21.252-3.94-21.252-2.81-21.252 12.94-43.17 22.6-43.168 8.93-21.253-5.474-21.253-2.266-21.252 7.78-43.17 7.294-43.17 9.048-21.25 10.312-21.255 11.05-21.253-4.544-43.168.395-43.17 4.023-21.253-1.633-21.25 1.57-21.254 3.818-43.172 3.837-43.167 5.365-21.252 9.69-21.254 12.34-21.25 9.32-43.17 9.417-43.17 9.713-21.254 5.14-21.25 5.492-21.255 4.99-43.17 7.872-43.167 5.755-21.254 1.79-21.253.696-21.25-1.102-43.17 3.888-43.17 4.54-21.25 1.17-21.255 1.82L0 413.563v22.778h1930V64.81l-32.543 18.233-43.17 59.712z" stroke="#2962FF" stroke-linecap="round" stroke-linejoin="round" fill-opacity=".3" fill="url(#JG8f8eYv-b)" opacity=".4" filter="url(#HdebVl4s-j)"/><path d="M1854.288 162.926l-21.253 41.243-21.252-11.255-21.253 2.203-43.17 29.183-43.17 41.767-21.25 16.734-21.254 10.472-21.252 33.304-43.17-8.096-43.17-34.36-21.252-.12-21.252 9.428-21.253 10.22-43.17 3.947L1404 290.74l-21.254-2.61-21.253 11.434-21.252 10.95-43.168 6.01-43.17-5.403-21.252-11.964-21.253-9.564-21.252-11.268-43.17-18.6-43.17-17.888-21.252-4.184-21.252-3.056-21.252 12.7-43.17 22.114-43.168 8.453-21.253-5.71-21.253-2.495-21.252 7.55-43.17 6.835-43.17 8.597-21.25 10.093-21.255 10.832-21.253-4.76-43.168-.037-43.17 3.597-21.253-1.84-21.25 1.367-21.254 3.614-43.172 3.43-43.167 4.967-21.252 9.495-21.254 12.15-21.25 9.132-43.17 9.035-43.17 9.342-21.254 4.96-21.25 5.313-21.255 4.815-43.17 7.518-43.167 5.41-21.254 1.622-21.253.53-21.25-1.265-43.17 3.562-43.17 4.22-21.25 1.015-21.255 1.668L0 413.56v22.78h1930V86.103l-32.543 17.748-43.17 59.074z" stroke="#2962FF" stroke-linecap="round" stroke-linejoin="round" fill-opacity=".3" fill="url(#JG8f8eYv-b)" opacity=".5"/><path d="M1854.288 183.097l-21.253 40.932-21.252-11.564-21.253 1.896-43.17 28.564-43.17 41.155-21.25 16.437-21.254 10.175-21.252 33.01-43.17-8.688-43.17-34.944-21.252-.406-21.252 9.146-21.253 9.938-43.17 3.382L1404 304.716l-21.254-2.88L1361.493 313l-21.252 10.682-43.168 5.47-43.17-5.934-21.252-12.223-21.253-9.822-21.252-11.523-43.17-19.113-43.17-18.392-21.252-4.43-21.252-3.3-21.252 12.46-43.17 21.627-43.168 7.974-21.253-5.94-21.253-2.728-21.252 7.322-43.17 6.375-43.17 8.146-21.25 9.874-21.255 10.614-21.253-4.976-43.168-.47-43.17 3.173-21.253-2.046-21.25 1.16-21.254 3.412-43.172 3.024-43.167 4.568-21.252 9.3-21.254 11.96-21.25 8.942-43.17 8.656-43.17 8.97-21.254 4.78-21.25 5.134-21.255 4.638-43.17 7.165-43.167 5.063-21.254 1.455-21.253.366-21.25-1.43-43.17 3.236-43.17 3.9-21.25.862-21.255 1.516L0 413.558v22.778h1930V107.398l-32.543 17.263-43.17 58.437z" stroke="#2962FF" stroke-width="1.5" stroke-linecap="round" stroke-linejoin="round" fill-opacity=".3" fill="url(#JG8f8eYv-b)" opacity=".6"/><path d="M1854.288 203.27l-21.253 40.62-21.252-11.873-21.253 1.59-43.17 27.944-43.17 40.545-21.25 16.14-21.254 9.877-21.252 32.716-43.17-9.28-43.17-35.528-21.252-.692-21.252 8.863-21.253 9.66-43.17 2.815L1404 318.693l-21.254-3.153-21.253 10.895-21.252 10.414-43.168 4.93-43.17-6.465-21.252-12.482-21.253-10.078-21.252-11.778-43.17-19.627-43.17-18.896-21.252-4.676-21.252-3.543-21.252 12.216-43.17 21.144-43.168 7.496-21.253-6.174-21.253-2.958-21.252 7.093-43.17 5.917-43.17 7.694-21.25 9.655-21.255 10.396-21.253-5.19-43.168-.903-43.17 2.747-21.253-2.252-21.25.956-21.254 3.21-43.172 2.617-43.167 4.17-21.252 9.108-21.254 11.767-21.25 8.752-43.17 8.276-43.17 8.598-21.254 4.6-21.25 4.956-21.255 4.46-43.17 6.813-43.167 4.72-21.254 1.287-21.253.2-21.25-1.593-43.17 2.907-43.17 3.583-21.25.707-21.255 1.363L0 413.555v22.778l1930-.853V128.693l-32.543 16.777-43.17 57.8z" stroke="#2962FF" stroke-width="2" stroke-linecap="round" stroke-linejoin="round" fill-opacity=".3" fill="url(#JG8f8eYv-b)" opacity=".7"/></g></svg>